<svg width="48" height="48" viewBox="0 0 48 48" fill="none" xmlns="http://www.w3.org/2000/svg">
<rect width="48" height="48" rx="12" fill="#2B79D6"/>
<g clip-path="url(#clip0_1136_2)">
<path d="M36.5657 8.16168C35.6364 7.79804 34.5859 8.00006 33.899 8.72733L24.0404 18.9496L14.101 8.72733C13.4141 8.04046 12.3636 7.79804 11.4343 8.16168C10.5455 8.56572 9.93939 9.4546 9.93939 10.4243V28.7677C9.93939 30.1011 11.0303 31.192 12.3636 31.192C13.697 31.192 14.7879 30.1011 14.7879 28.7677V16.4041L22.303 24.1617C22.7475 24.6465 23.3939 24.8889 24.0404 24.8889C24.6869 24.8889 25.3333 24.6061 25.7778 24.1617L33.2121 16.4445V28.7677C33.2121 30.1011 34.303 31.192 35.6364 31.192C36.9697 31.192 38.0606 30.1011 38.0606 28.7677V10.4243C38.0606 9.4546 37.4545 8.56572 36.5657 8.16168Z" fill="white"/>
<path d="M30.0202 35.1516H18.0606C16.7273 35.1516 15.6364 36.2425 15.6364 37.5759C15.6364 38.9092 16.7273 40.0001 18.0606 40.0001H30.0202C31.3535 40.0001 32.4444 38.9092 32.4444 37.5759C32.4444 36.2425 31.3535 35.1516 30.0202 35.1516Z" fill="white"/>
</g>
<defs>
<clipPath id="clip0_1136_2">
<rect width="28.1212" height="32" fill="white" transform="translate(9.93939 8)"/>
</clipPath>
</defs>
</svg>
