<svg width="48" height="48" viewBox="0 0 48 48" fill="none" xmlns="http://www.w3.org/2000/svg">
<rect width="48" height="48" rx="12" fill="#2B79D6"/>
<g clip-path="url(#clip0_1136_2)">
<path d="M33.4242 12.1212C32.7273 11.8484 31.9394 12 31.4242 12.5454L24.0303 20.2121L16.5757 12.5454C16.0606 12.0303 15.2727 11.8484 14.5757 12.1212C13.9091 12.4242 13.4545 13.0909 13.4545 13.8181V27.5757C13.4545 28.5757 14.2727 29.3939 15.2727 29.3939C16.2727 29.3939 17.0909 28.5757 17.0909 27.5757V18.303L22.7273 24.1212C23.0606 24.4848 23.5454 24.6666 24.0303 24.6666C24.5151 24.6666 25 24.4545 25.3333 24.1212L30.9091 18.3333V27.5757C30.9091 28.5757 31.7273 29.3939 32.7273 29.3939C33.7273 29.3939 34.5454 28.5757 34.5454 27.5757V13.8181C34.5454 13.0909 34.0909 12.4242 33.4242 12.1212Z" fill="white"/>
<path d="M28.5151 32.3636H19.5454C18.5454 32.3636 17.7272 33.1818 17.7272 34.1818C17.7272 35.1818 18.5454 36 19.5454 36H28.5151C29.5151 36 30.3333 35.1818 30.3333 34.1818C30.3333 33.1818 29.5151 32.3636 28.5151 32.3636Z" fill="white"/>
</g>
<defs>
<clipPath id="clip0_1136_2">
<rect width="21.0909" height="24" fill="white" transform="translate(13.4545 12)"/>
</clipPath>
</defs>
</svg>
